<svg width="130" height="127" viewBox="0 0 130 127" fill="none" xmlns="http://www.w3.org/2000/svg">
<g filter="url(#filter0_d_93_43)">
<ellipse cx="65" cy="59.5" rx="61" ry="59.5" fill="white"/>
<path d="M125.75 59.5C125.75 92.217 98.5572 118.75 65 118.75C31.4428 118.75 4.25 92.217 4.25 59.5C4.25 26.783 31.4428 0.25 65 0.25C98.5572 0.25 125.75 26.783 125.75 59.5Z" stroke="#A09C9C" stroke-width="0.5"/>
</g>
<path d="M32.987 94.046C32.987 96.0807 32.2823 97.098 30.873 97.098C30.3783 97.098 29.9117 97.0467 29.473 96.944V96.062C29.977 96.146 30.3923 96.188 30.719 96.188C31.1857 96.188 31.503 95.9733 31.671 95.544C31.8483 95.1147 31.937 94.536 31.937 93.808V88.026H29.907V87.2H32.987V94.046ZM42.1818 97H41.0058L40.0258 93.906H36.5118L35.5458 97H34.4398L37.6598 87.2H38.9338L42.1818 97ZM39.7878 92.996L38.2898 88.264L36.7778 92.996H39.7878ZM49.2667 87.2L46.2427 97H44.7727L41.9867 87.2H43.1627L45.5567 95.81L48.1187 87.2H49.2667ZM56.8107 97H55.6347L54.6547 93.906H51.1407L50.1747 97H49.0687L52.2887 87.2H53.5627L56.8107 97ZM54.4167 92.996L52.9187 88.264L51.4067 92.996H54.4167ZM63.1961 87.55L62.9721 88.488L62.1601 88.25C61.5815 88.11 61.0821 88.04 60.6621 88.04C59.5608 88.04 59.0101 88.53 59.0101 89.51C59.0101 89.9393 59.1781 90.294 59.5141 90.574C59.8501 90.8447 60.2561 91.064 60.7321 91.232C61.2175 91.3907 61.6981 91.568 62.1741 91.764C62.6595 91.9507 63.0701 92.2447 63.4061 92.646C63.7421 93.038 63.9101 93.5373 63.9101 94.144C63.9101 95.068 63.6255 95.7913 63.0561 96.314C62.4868 96.8273 61.6795 97.084 60.6341 97.084C60.1115 97.084 59.5841 97.0093 59.0521 96.86C58.5295 96.7013 58.1001 96.5193 57.7641 96.314L58.1141 95.516C58.9635 95.908 59.7661 96.104 60.5221 96.104C61.2875 96.104 61.8661 95.95 62.2581 95.642C62.6595 95.334 62.8601 94.886 62.8601 94.298C62.8601 93.7007 62.5381 93.234 61.8941 92.898C61.6048 92.7487 61.2828 92.6087 60.9281 92.478C60.5828 92.3473 60.2328 92.2073 59.8781 92.058C59.5328 91.8993 59.2155 91.722 58.9261 91.526C58.6461 91.33 58.4128 91.064 58.2261 90.728C58.0488 90.392 57.9601 90 57.9601 89.552C57.9601 88.7493 58.1981 88.1333 58.6741 87.704C59.1595 87.2747 59.8081 87.06 60.6201 87.06C61.4321 87.06 62.2908 87.2233 63.1961 87.55ZM69.5491 97.084C68.2144 97.084 67.1877 96.636 66.4691 95.74C65.7597 94.8347 65.4051 93.612 65.4051 92.072C65.4051 90.532 65.7831 89.314 66.5391 88.418C67.2951 87.522 68.3497 87.074 69.7031 87.074C70.4497 87.074 71.1824 87.2093 71.9011 87.48L71.6491 88.348C71.0797 88.1053 70.4077 87.984 69.6331 87.984C68.6531 87.984 67.8784 88.3433 67.3091 89.062C66.7397 89.7713 66.4551 90.7513 66.4551 92.002C66.4551 93.2433 66.7211 94.2513 67.2531 95.026C67.7944 95.7913 68.5457 96.174 69.5071 96.174C70.1417 96.174 70.9397 95.992 71.9011 95.628L72.1811 96.356C71.3784 96.8413 70.5011 97.084 69.5491 97.084ZM76.0729 92.394H75.2049V96.986H74.1549V87.186H76.9829C77.9349 87.186 78.6489 87.4053 79.1249 87.844C79.6102 88.2733 79.8529 88.8893 79.8529 89.692C79.8529 90.252 79.6569 90.7653 79.2649 91.232C78.8822 91.6987 78.4062 91.9693 77.8369 92.044C78.2942 92.1467 78.6162 92.296 78.8029 92.492C78.9989 92.6787 79.2275 93.0847 79.4889 93.71L80.8749 96.986H79.7689L78.4109 93.85C78.1589 93.262 77.8742 92.8747 77.5569 92.688C77.2489 92.492 76.7542 92.394 76.0729 92.394ZM76.9269 88.082H75.2049V91.498H76.7869C77.3655 91.498 77.8229 91.33 78.1589 90.994C78.5042 90.6487 78.6769 90.2147 78.6769 89.692C78.6769 89.1693 78.5229 88.7727 78.2149 88.502C77.9069 88.222 77.4775 88.082 76.9269 88.082ZM83.6404 97H82.5904V87.2H83.6404V97ZM88.6641 92.884H87.2361V97H86.1861V87.2H88.9861C90.0314 87.2 90.7874 87.4287 91.2541 87.886C91.7301 88.3433 91.9681 89.0573 91.9681 90.028C91.9681 90.9893 91.6788 91.708 91.1001 92.184C90.5214 92.6507 89.7094 92.884 88.6641 92.884ZM88.5101 88.096H87.2361V91.988H88.1601C89.1214 91.988 89.8214 91.8433 90.2601 91.554C90.6988 91.2647 90.9181 90.77 90.9181 90.07C90.9181 89.3607 90.7268 88.8567 90.3441 88.558C89.9614 88.25 89.3501 88.096 88.5101 88.096ZM95.5103 97V88.138H92.7663V87.2H99.2623V88.138H96.5463V97H95.5103Z" fill="black"/>
<path d="M67.3906 69C81.4135 69 92.7812 57.8071 92.7812 44C92.7812 30.1929 81.4135 19 67.3906 19C53.3678 19 42 30.1929 42 44C42 57.8071 53.3678 69 67.3906 69Z" fill="#F0DB4F"/>
<path d="M59.4688 34.3H63.8867V46.55C63.8867 52.05 61.1953 54 56.9297 54C55.8633 54 54.543 53.85 53.6797 53.55L54.1875 50C54.7969 50.2 55.6094 50.35 56.4727 50.35C58.3516 50.35 59.5195 49.5 59.5195 46.55L59.4688 34.3Z" fill="#323330"/>
<path d="M67.9141 49.2C69.082 49.8 70.9609 50.4 72.8398 50.4C74.8711 50.4 75.9375 49.55 75.9375 48.25C75.9375 47.05 75.0234 46.35 72.6367 45.55C69.3867 44.4 67.2031 42.6 67.2031 39.75C67.2031 36.5 70.0469 34 74.668 34C76.9023 34 78.5273 34.45 79.6953 35L78.6797 38.5C77.918 38.15 76.4961 37.6 74.6172 37.6C72.6875 37.6 71.7734 38.5 71.7734 39.45C71.7734 40.7 72.8398 41.25 75.4297 42.2C78.8828 43.45 80.5078 45.25 80.5078 48C80.5078 51.25 78.0195 54 72.5859 54C70.3516 54 68.1172 53.4 67 52.8L67.9141 49.2Z" fill="#323330"/>
<defs>
<filter id="filter0_d_93_43" x="0" y="0" width="130" height="127" filterUnits="userSpaceOnUse" color-interpolation-filters="sRGB">
<feFlood flood-opacity="0" result="BackgroundImageFix"/>
<feColorMatrix in="SourceAlpha" type="matrix" values="0 0 0 0 0 0 0 0 0 0 0 0 0 0 0 0 0 0 127 0" result="hardAlpha"/>
<feOffset dy="4"/>
<feGaussianBlur stdDeviation="2"/>
<feComposite in2="hardAlpha" operator="out"/>
<feColorMatrix type="matrix" values="0 0 0 0 0 0 0 0 0 0 0 0 0 0 0 0 0 0 0.25 0"/>
<feBlend mode="normal" in2="BackgroundImageFix" result="effect1_dropShadow_93_43"/>
<feBlend mode="normal" in="SourceGraphic" in2="effect1_dropShadow_93_43" result="shape"/>
</filter>
</defs>
</svg>
