<svg width="130" height="127" viewBox="0 0 130 127" fill="none" xmlns="http://www.w3.org/2000/svg">
<g filter="url(#filter0_d_93_24)">
<ellipse cx="65" cy="59.5" rx="61" ry="59.5" fill="white"/>
<path d="M125.75 59.5C125.75 92.217 98.5572 118.75 65 118.75C31.4428 118.75 4.25 92.217 4.25 59.5C4.25 26.783 31.4428 0.25 65 0.25C98.5572 0.25 125.75 26.783 125.75 59.5Z" stroke="#A09C9C" stroke-width="0.5"/>
</g>
<path d="M43.8003 92.078H42.6843V97.982H41.3343V85.382H44.9703C46.1943 85.382 47.1123 85.664 47.7243 86.228C48.3483 86.78 48.6603 87.572 48.6603 88.604C48.6603 89.324 48.4083 89.984 47.9043 90.584C47.4123 91.184 46.8003 91.532 46.0683 91.628C46.6563 91.76 47.0703 91.952 47.3103 92.204C47.5623 92.444 47.8563 92.966 48.1923 93.77L49.9743 97.982H48.5523L46.8063 93.95C46.4823 93.194 46.1163 92.696 45.7083 92.456C45.3123 92.204 44.6763 92.078 43.8003 92.078ZM44.8983 86.534H42.6843V90.926H44.7183C45.4623 90.926 46.0503 90.71 46.4823 90.278C46.9263 89.834 47.1483 89.276 47.1483 88.604C47.1483 87.932 46.9503 87.422 46.5543 87.074C46.1583 86.714 45.6063 86.534 44.8983 86.534ZM58.966 98H52.18V85.4H58.966V86.57H53.53V90.566H58.516V91.772H53.53V96.83H58.966V98ZM70.4859 98H68.9739L67.7139 94.022H63.1959L61.9539 98H60.5319L64.6719 85.4H66.3099L70.4859 98ZM67.4079 92.852L65.4819 86.768L63.5379 92.852H67.4079ZM76.9497 98.108C75.2337 98.108 73.9137 97.532 72.9897 96.38C72.0777 95.216 71.6217 93.644 71.6217 91.664C71.6217 89.684 72.1077 88.118 73.0797 86.966C74.0517 85.814 75.4077 85.238 77.1477 85.238C78.1077 85.238 79.0497 85.412 79.9737 85.76L79.6497 86.876C78.9177 86.564 78.0537 86.408 77.0577 86.408C75.7977 86.408 74.8017 86.87 74.0697 87.794C73.3377 88.706 72.9717 89.966 72.9717 91.574C72.9717 93.17 73.3137 94.466 73.9977 95.462C74.6937 96.446 75.6597 96.938 76.8957 96.938C77.7117 96.938 78.7377 96.704 79.9737 96.236L80.3337 97.172C79.3017 97.796 78.1737 98.108 76.9497 98.108ZM85.1214 98V86.606H81.5934V85.4H89.9454V86.606H86.4534V98H85.1214Z" fill="black"/>
<path d="M64.9978 49.088C67.8231 49.088 70.1133 46.7977 70.1133 43.9725C70.1133 41.1473 67.8231 38.857 64.9978 38.857C62.1726 38.857 59.8823 41.1473 59.8823 43.9725C59.8823 46.7977 62.1726 49.088 64.9978 49.088Z" fill="#61DAFB"/>
<path d="M64.9978 62.7844C69.0132 66.6898 72.9736 69 76.1639 69C77.209 69 78.1991 68.78 79.0242 68.2849C81.8845 66.6348 82.9296 62.5093 81.9395 56.6238C81.7745 55.5787 81.5545 54.5336 81.2794 53.4334C82.3795 53.1034 83.3696 52.7734 84.3597 52.4433C89.9153 50.2981 92.9956 47.3278 92.9956 44.0825C92.9956 40.7822 89.9153 37.8119 84.3597 35.7217C83.3696 35.3366 82.3795 35.0066 81.2794 34.7316C81.5545 33.6315 81.7745 32.5864 81.9395 31.5413C82.8746 25.5457 81.8295 21.3652 78.9692 19.7151C78.1441 19.22 77.154 19 76.1089 19C72.9736 19 68.9582 21.3102 64.9428 25.2156C60.9824 21.3102 57.022 19 53.8317 19C52.7866 19 51.7965 19.22 50.9714 19.7151C48.1111 21.3652 47.066 25.4906 48.0561 31.3762C48.2211 32.4213 48.4411 33.4664 48.7162 34.5666C47.6161 34.8966 46.626 35.2266 45.6359 35.5567C40.0803 37.7019 37 40.6722 37 43.9175C37 47.2178 40.0803 50.1881 45.6359 52.2783C46.626 52.6634 47.6161 52.9934 48.7162 53.2684C48.4411 54.3685 48.2211 55.4136 48.0561 56.4587C47.121 62.3443 48.1661 66.5248 50.9714 68.1199C51.7965 68.615 52.7866 68.835 53.8317 68.835C57.022 68.945 60.9824 66.6348 64.9978 62.7844ZM61.9175 55.3586C62.9076 55.4136 63.9527 55.4136 64.9978 55.4136C66.0429 55.4136 67.088 55.4136 68.0781 55.3586C67.088 56.6788 66.0429 57.8889 64.9978 59.044C63.9527 57.8889 62.9076 56.6788 61.9175 55.3586ZM55.0968 49.6931C55.6469 50.6282 56.1419 51.5082 56.747 52.3883C55.0418 52.1683 53.4466 51.8933 51.9065 51.5633C52.4015 50.0781 52.9516 48.538 53.6117 46.9978C54.0517 47.8779 54.5468 48.813 55.0968 49.6931ZM51.9065 36.4367C53.4466 36.1067 55.0418 35.8317 56.747 35.6117C56.1969 36.4917 55.6469 37.3718 55.0968 38.3069C54.5468 39.242 54.0517 40.1221 53.6117 41.0572C52.8966 39.462 52.3465 37.9219 51.9065 36.4367ZM54.9318 43.9725C55.6469 42.4873 56.4169 41.0022 57.297 39.5171C58.1221 38.0869 59.0572 36.6568 59.9923 35.2266C61.6425 35.1166 63.2926 35.0616 64.9978 35.0616C66.758 35.0616 68.4081 35.1166 70.0033 35.2266C70.9934 36.6568 71.8735 38.0869 72.6986 39.5171C73.5787 41.0022 74.3487 42.4873 75.0638 43.9725C74.3487 45.4576 73.5787 46.9428 72.6986 48.4279C71.8735 49.8581 70.9384 51.2882 70.0033 52.7184C68.3531 52.8284 66.703 52.8834 64.9978 52.8834C63.2376 52.8834 61.5875 52.8284 59.9923 52.7184C59.0022 51.2882 58.1221 49.8581 57.297 48.4279C56.4169 46.9428 55.6469 45.4576 54.9318 43.9725ZM76.4389 41.0022L74.9538 38.2519C74.4037 37.3168 73.9087 36.4367 73.3036 35.5567C75.0088 35.7767 76.604 36.0517 78.1441 36.3817C77.6491 37.9219 77.099 39.462 76.4389 41.0022ZM76.4389 46.9428C77.099 48.4829 77.6491 50.0231 78.1441 51.5082C76.604 51.8383 75.0088 52.1133 73.3036 52.3333C73.8537 51.4532 74.4037 50.5732 74.9538 49.6381C75.4488 48.813 75.9439 47.8779 76.4389 46.9428ZM77.7041 66.0297C77.264 66.3047 76.714 66.4147 76.1089 66.4147C73.4136 66.4147 70.0583 64.2145 66.758 60.9142C68.3531 59.209 69.8933 57.2838 71.4334 55.1386C74.0187 54.9186 76.494 54.5336 78.8042 53.9835C79.0792 54.9736 79.2442 55.9637 79.4092 56.9538C80.1793 61.6293 79.5743 64.9846 77.7041 66.0297ZM80.5644 37.0418C86.725 38.802 90.4103 41.4972 90.4103 43.9725C90.4103 46.1177 87.8801 48.2629 83.4246 49.9681C82.5446 50.2981 81.5545 50.6282 80.5644 50.9032C79.8493 48.648 78.9692 46.3377 77.8691 43.9725C78.9692 41.6073 79.9043 39.297 80.5644 37.0418ZM76.1639 21.5303C76.769 21.5303 77.264 21.6403 77.7591 21.9153C79.5743 22.9604 80.2343 26.2607 79.4643 30.9912C79.2992 31.9263 79.0792 32.9164 78.8592 33.9615C76.549 33.4664 74.0737 33.0814 71.4885 32.8064C70.0033 30.6612 68.4081 28.736 66.813 27.0308C70.1133 23.7855 73.4687 21.5303 76.1639 21.5303ZM68.0781 32.5864C67.088 32.5314 66.0429 32.5314 64.9978 32.5314C63.9527 32.5314 62.9076 32.5314 61.9175 32.5864C62.9076 31.2662 63.9527 30.0561 64.9978 28.901C66.0429 30.0561 67.088 31.3212 68.0781 32.5864ZM52.2915 21.9153C52.7316 21.6403 53.2816 21.5303 53.8867 21.5303C56.582 21.5303 59.9373 23.7305 63.2376 27.0308C61.6425 28.736 60.1023 30.6612 58.5622 32.8064C55.9769 33.0264 53.5017 33.4114 51.1914 33.9615C50.9164 32.9714 50.7514 31.9813 50.5864 30.9912C49.8163 26.3157 50.4213 23.0154 52.2915 21.9153ZM49.4312 50.9032C43.2706 49.143 39.5853 46.4477 39.5853 43.9725C39.5853 41.8273 42.1155 39.6821 46.571 37.9769C47.451 37.6469 48.4411 37.3168 49.4312 37.0418C50.1463 39.297 51.0264 41.6073 52.1265 43.9725C51.0264 46.3377 50.0913 48.703 49.4312 50.9032ZM50.5864 56.9538C50.7514 56.0187 50.9714 55.0286 51.1914 53.9835C53.5017 54.4785 55.9769 54.8636 58.5622 55.1386C60.0473 57.2838 61.6425 59.209 63.2376 60.9142C59.9373 64.1595 56.582 66.4147 53.8867 66.4147C53.2816 66.4147 52.7866 66.3047 52.2915 66.0297C50.4213 64.9846 49.8163 61.6293 50.5864 56.9538Z" fill="#61DAFB"/>
<defs>
<filter id="filter0_d_93_24" x="0" y="0" width="130" height="127" filterUnits="userSpaceOnUse" color-interpolation-filters="sRGB">
<feFlood flood-opacity="0" result="BackgroundImageFix"/>
<feColorMatrix in="SourceAlpha" type="matrix" values="0 0 0 0 0 0 0 0 0 0 0 0 0 0 0 0 0 0 127 0" result="hardAlpha"/>
<feOffset dy="4"/>
<feGaussianBlur stdDeviation="2"/>
<feComposite in2="hardAlpha" operator="out"/>
<feColorMatrix type="matrix" values="0 0 0 0 0 0 0 0 0 0 0 0 0 0 0 0 0 0 0.25 0"/>
<feBlend mode="normal" in2="BackgroundImageFix" result="effect1_dropShadow_93_24"/>
<feBlend mode="normal" in="SourceGraphic" in2="effect1_dropShadow_93_24" result="shape"/>
</filter>
</defs>
</svg>
