<svg width="130" height="127" viewBox="0 0 130 127" fill="none" xmlns="http://www.w3.org/2000/svg">
<g filter="url(#filter0_d_93_32)">
<ellipse cx="65" cy="59.5" rx="61" ry="59.5" fill="white"/>
<path d="M125.75 59.5C125.75 92.217 98.5572 118.75 65 118.75C31.4428 118.75 4.25 92.217 4.25 59.5C4.25 26.783 31.4428 0.25 65 0.25C98.5572 0.25 125.75 26.783 125.75 59.5Z" stroke="#A09C9C" stroke-width="0.5"/>
</g>
<path d="M52.891 87.85L52.603 89.056L51.559 88.75C50.815 88.57 50.173 88.48 49.633 88.48C48.217 88.48 47.509 89.11 47.509 90.37C47.509 90.922 47.725 91.378 48.157 91.738C48.589 92.086 49.111 92.368 49.723 92.584C50.347 92.788 50.965 93.016 51.577 93.268C52.201 93.508 52.729 93.886 53.161 94.402C53.593 94.906 53.809 95.548 53.809 96.328C53.809 97.516 53.443 98.446 52.711 99.118C51.979 99.778 50.941 100.108 49.597 100.108C48.925 100.108 48.247 100.012 47.563 99.82C46.891 99.616 46.339 99.382 45.907 99.118L46.357 98.092C47.449 98.596 48.481 98.848 49.453 98.848C50.437 98.848 51.181 98.65 51.685 98.254C52.201 97.858 52.459 97.282 52.459 96.526C52.459 95.758 52.045 95.158 51.217 94.726C50.845 94.534 50.431 94.354 49.975 94.186C49.531 94.018 49.081 93.838 48.625 93.646C48.181 93.442 47.773 93.214 47.401 92.962C47.041 92.71 46.741 92.368 46.501 91.936C46.273 91.504 46.159 91 46.159 90.424C46.159 89.392 46.465 88.6 47.077 88.048C47.701 87.496 48.535 87.22 49.579 87.22C50.623 87.22 51.727 87.43 52.891 87.85ZM65.0191 100H63.5071L62.2471 96.022H57.7291L56.4871 100H55.0651L59.2051 87.4H60.8431L65.0191 100ZM61.9411 94.852L60.0151 88.768L58.0711 94.852H61.9411ZM73.2289 87.85L72.9409 89.056L71.8969 88.75C71.1529 88.57 70.5109 88.48 69.9709 88.48C68.5549 88.48 67.8469 89.11 67.8469 90.37C67.8469 90.922 68.0629 91.378 68.4949 91.738C68.9269 92.086 69.4489 92.368 70.0609 92.584C70.6849 92.788 71.3029 93.016 71.9149 93.268C72.5389 93.508 73.0669 93.886 73.4989 94.402C73.9309 94.906 74.1469 95.548 74.1469 96.328C74.1469 97.516 73.7809 98.446 73.0489 99.118C72.3169 99.778 71.2789 100.108 69.9349 100.108C69.2629 100.108 68.5849 100.012 67.9009 99.82C67.2289 99.616 66.6769 99.382 66.2449 99.118L66.6949 98.092C67.7869 98.596 68.8189 98.848 69.7909 98.848C70.7749 98.848 71.5189 98.65 72.0229 98.254C72.5389 97.858 72.7969 97.282 72.7969 96.526C72.7969 95.758 72.3829 95.158 71.5549 94.726C71.1829 94.534 70.7689 94.354 70.3129 94.186C69.8689 94.018 69.4189 93.838 68.9629 93.646C68.5189 93.442 68.1109 93.214 67.7389 92.962C67.3789 92.71 67.0789 92.368 66.8389 91.936C66.6109 91.504 66.4969 91 66.4969 90.424C66.4969 89.392 66.8029 88.6 67.4149 88.048C68.0389 87.496 68.8729 87.22 69.9169 87.22C70.9609 87.22 72.0649 87.43 73.2289 87.85ZM83.1429 87.85L82.8549 89.056L81.8109 88.75C81.0669 88.57 80.4249 88.48 79.8849 88.48C78.4689 88.48 77.7609 89.11 77.7609 90.37C77.7609 90.922 77.9769 91.378 78.4089 91.738C78.8409 92.086 79.3629 92.368 79.9749 92.584C80.5989 92.788 81.2169 93.016 81.8289 93.268C82.4529 93.508 82.9809 93.886 83.4129 94.402C83.8449 94.906 84.0609 95.548 84.0609 96.328C84.0609 97.516 83.6949 98.446 82.9629 99.118C82.2309 99.778 81.1929 100.108 79.8489 100.108C79.1769 100.108 78.4989 100.012 77.8149 99.82C77.1429 99.616 76.5909 99.382 76.1589 99.118L76.6089 98.092C77.7009 98.596 78.7329 98.848 79.7049 98.848C80.6889 98.848 81.4329 98.65 81.9369 98.254C82.4529 97.858 82.7109 97.282 82.7109 96.526C82.7109 95.758 82.2969 95.158 81.4689 94.726C81.0969 94.534 80.6829 94.354 80.2269 94.186C79.7829 94.018 79.3329 93.838 78.8769 93.646C78.4329 93.442 78.0249 93.214 77.6529 92.962C77.2929 92.71 76.9929 92.368 76.7529 91.936C76.5249 91.504 76.4109 91 76.4109 90.424C76.4109 89.392 76.7169 88.6 77.3289 88.048C77.9529 87.496 78.7869 87.22 79.8309 87.22C80.8749 87.22 81.9789 87.43 83.1429 87.85Z" fill="black"/>
<path d="M94.4041 47.7388C92.0709 47.7491 90.0503 48.3117 88.363 49.145C87.7484 47.9052 87.1129 46.8221 87.0087 46.0098C86.884 45.0617 86.7483 44.4995 86.8943 43.3746C87.0403 42.2494 87.6962 40.6558 87.6859 40.5414C87.6756 40.4269 87.5401 39.8539 86.1965 39.8434C84.8529 39.8332 83.6969 40.1038 83.5613 40.4579C83.4257 40.812 83.1656 41.6142 83.0093 42.4474C82.7697 43.6661 80.3218 48.02 78.9365 50.2906C78.4783 49.4055 78.093 48.6241 78.0095 47.9991C77.8845 47.0511 77.7491 46.4888 77.895 45.364C78.0408 44.2388 78.6969 42.6452 78.6864 42.5308C78.676 42.4163 78.5406 41.8433 77.1971 41.8328C75.8534 41.8225 74.6975 42.0932 74.5618 42.4474C74.4264 42.8014 74.2806 43.6348 74.0098 44.4371C73.7392 45.2387 70.4788 52.4882 69.6248 54.3736C69.1871 55.3316 68.8124 56.1025 68.5415 56.6235C68.5 56.7067 68.4687 56.7589 68.4478 56.8006C68.479 56.7486 68.5 56.6963 68.5 56.7174C68.2709 57.1651 68.1353 57.4151 68.1353 57.4151V57.4254C67.9582 57.7587 67.7603 58.0606 67.6667 58.0606C67.6041 58.0606 67.4688 57.1859 67.698 55.988C68.1874 53.4674 69.3435 49.5513 69.3331 49.4157C69.3227 49.3428 69.5517 48.6658 68.5727 48.3011C67.6249 47.9574 67.2811 48.5304 67.1979 48.5304C67.1147 48.5304 67.0521 48.7389 67.0521 48.7389C67.0521 48.7389 68.1042 44.3225 65.0314 44.3225C63.1149 44.3225 60.4486 46.4267 59.1363 48.3327C58.3133 48.7806 56.5321 49.7492 54.6574 50.7803C53.9387 51.1762 53.1991 51.5822 52.5013 51.9678C52.4493 51.9154 52.4075 51.8634 52.3555 51.8114C48.6266 47.8327 41.7417 45.0204 42.0335 39.6769C42.1376 37.7291 42.8147 32.6152 55.272 26.4073C65.4796 21.3244 73.6454 22.7201 75.0518 25.824C77.0722 30.2508 70.6873 38.4897 60.0841 39.6769C56.0427 40.1248 53.9181 38.5625 53.3868 37.9793C52.8347 37.3648 52.7513 37.3334 52.543 37.448C52.1992 37.6355 52.4181 38.1772 52.543 38.5C52.8556 39.3228 54.1574 40.781 56.3761 41.5102C58.3236 42.1455 63.063 42.4998 68.7915 40.2811C75.2285 37.802 80.2386 30.8963 78.7699 25.1157C77.2702 19.2413 67.5314 17.3143 58.3135 20.5848C52.8244 22.5326 46.8874 25.5949 42.6168 29.584C37.5444 34.3338 36.732 38.4687 37.0651 40.1979C38.2526 46.3326 46.7101 50.3324 50.0953 53.2904C49.9286 53.3841 49.7723 53.4675 49.6267 53.5508C47.9289 54.3944 41.4815 57.7691 39.867 61.3317C38.0445 65.3729 40.169 68.2683 41.5647 68.6643C45.9185 69.8724 50.3765 67.6956 52.7722 64.1228C55.1676 60.5504 54.8761 55.8841 53.7721 53.7592C53.7616 53.728 53.7408 53.7074 53.7305 53.6758C54.1679 53.4156 54.6156 53.1551 55.0637 52.8948C55.9281 52.3844 56.7719 51.9154 57.5113 51.5096C57.0945 52.6346 56.7926 53.988 56.6363 55.9466C56.4489 58.2379 57.3968 61.2064 58.6259 62.3731C59.1673 62.8835 59.8235 62.894 60.2298 62.894C61.6672 62.894 62.3128 61.7064 63.0315 60.2899C63.9169 58.5606 64.6981 56.5503 64.6981 56.5503C64.6981 56.5503 63.7191 61.9878 66.3958 61.9878C67.3749 61.9878 68.3542 60.7274 68.7914 60.0816V60.0919C68.7914 60.0919 68.8124 60.0504 68.8645 59.9672C68.9685 59.8108 69.0206 59.717 69.0206 59.717V59.6856C69.4163 59.0086 70.281 57.4566 71.5827 54.8945C73.2703 51.582 74.8845 47.4469 74.8845 47.4469C74.8845 47.4469 75.0303 48.4575 75.5306 50.1344C75.8221 51.1238 76.4366 52.2071 76.9261 53.2592C76.5305 53.8008 76.2907 54.1133 76.2907 54.1133C76.2907 54.1133 76.2907 54.1236 76.3009 54.134C75.9885 54.5509 75.6345 54.9988 75.2699 55.4363C73.9366 57.0194 72.3534 58.8319 72.1453 59.3526C71.8951 59.9672 71.9577 60.4251 72.4369 60.7796C72.7909 61.0505 73.416 61.0919 74.072 61.04C75.2699 60.9564 76.1136 60.665 76.5198 60.4772C77.1654 60.2484 77.9156 59.8836 78.6238 59.3733C79.9258 58.4153 80.7176 57.0404 80.6444 55.228C80.6028 54.2281 80.2797 53.228 79.8839 52.2909C79.9986 52.124 80.1237 51.9468 80.2382 51.7701C82.3008 48.7594 83.8943 45.4581 83.8943 45.4581C83.8943 45.4581 84.0401 46.4681 84.5399 48.1451C84.79 48.9889 85.2795 49.9159 85.7273 50.8219C83.7899 52.3948 82.5923 54.2178 82.1755 55.4153C81.4047 57.634 82.0088 58.6336 83.1441 58.8632C83.6545 58.9673 84.3837 58.7275 84.9254 58.4984C85.6023 58.2692 86.4148 57.9046 87.1751 57.3422C88.4771 56.3842 89.7375 55.0403 89.6543 53.2176C89.6228 52.3947 89.3938 51.5719 89.0917 50.7803C90.7268 50.093 92.852 49.7178 95.56 50.0304C101.362 50.7074 102.497 54.332 102.278 55.8422C102.06 57.3631 100.841 58.1964 100.435 58.4463C100.028 58.6964 99.9033 58.7902 99.9348 58.9776C99.9867 59.2484 100.174 59.2381 100.518 59.1753C100.997 59.0921 103.559 57.9462 103.674 55.1444C103.841 51.6029 100.435 47.7076 94.4041 47.7388ZM49.6891 62.8104C47.7728 64.904 45.0855 65.6956 43.9294 65.029C42.6899 64.3106 43.1794 61.2273 45.5438 58.9982C46.9812 57.6443 48.8352 56.3945 50.0643 55.6237C50.3455 55.4572 50.7518 55.2071 51.2518 54.905C51.3351 54.8533 51.3767 54.8323 51.3767 54.8323C51.4704 54.7695 51.5746 54.7176 51.6788 54.655C52.543 57.8214 51.7098 60.6127 49.6891 62.8104ZM63.688 53.2904C63.0214 54.9255 61.6152 59.092 60.7614 58.8732C60.0322 58.6857 59.5842 55.5089 60.6155 52.3844C61.1362 50.8115 62.2402 48.9367 62.8966 48.2077C63.9484 47.0306 65.1046 46.6555 65.3755 47.1243C65.7399 47.7388 64.1045 52.2697 63.688 53.2904ZM75.2494 58.811C74.9683 58.9567 74.7078 59.0504 74.5829 58.9775C74.4892 58.9254 74.6975 58.7274 74.6975 58.7274C74.6975 58.7274 76.1451 57.1755 76.7181 56.4669C77.0513 56.0505 77.4366 55.5608 77.8534 55.0194C77.8534 55.0712 77.8635 55.1236 77.8635 55.1858C77.8535 57.0505 76.062 58.3111 75.2494 58.811ZM84.1655 56.7798C83.9572 56.6339 83.9882 56.1444 84.6862 54.6235C84.9571 54.0298 85.5822 53.03 86.6651 52.0717C86.7902 52.4674 86.863 52.8423 86.863 53.1964C86.8524 55.5401 85.1757 56.415 84.1655 56.7798Z" fill="#CF649A"/>
<defs>
<filter id="filter0_d_93_32" x="0" y="0" width="130" height="127" filterUnits="userSpaceOnUse" color-interpolation-filters="sRGB">
<feFlood flood-opacity="0" result="BackgroundImageFix"/>
<feColorMatrix in="SourceAlpha" type="matrix" values="0 0 0 0 0 0 0 0 0 0 0 0 0 0 0 0 0 0 127 0" result="hardAlpha"/>
<feOffset dy="4"/>
<feGaussianBlur stdDeviation="2"/>
<feComposite in2="hardAlpha" operator="out"/>
<feColorMatrix type="matrix" values="0 0 0 0 0 0 0 0 0 0 0 0 0 0 0 0 0 0 0.25 0"/>
<feBlend mode="normal" in2="BackgroundImageFix" result="effect1_dropShadow_93_32"/>
<feBlend mode="normal" in="SourceGraphic" in2="effect1_dropShadow_93_32" result="shape"/>
</filter>
</defs>
</svg>
