<svg width="130" height="127" viewBox="0 0 130 127" fill="none" xmlns="http://www.w3.org/2000/svg">
<g filter="url(#filter0_d_95_68)">
<ellipse cx="65" cy="59.5" rx="61" ry="59.5" fill="white"/>
<path d="M125.75 59.5C125.75 92.217 98.5572 118.75 65 118.75C31.4428 118.75 4.25 92.217 4.25 59.5C4.25 26.783 31.4428 0.25 65 0.25C98.5572 0.25 125.75 26.783 125.75 59.5Z" stroke="#A09C9C" stroke-width="0.5"/>
</g>
<path d="M43.177 87.4L39.289 100H37.399L33.817 87.4H35.329L38.407 98.47L41.701 87.4H43.177ZM51.3832 87.85L51.0952 89.056L50.0512 88.75C49.3072 88.57 48.6652 88.48 48.1252 88.48C46.7092 88.48 46.0012 89.11 46.0012 90.37C46.0012 90.922 46.2172 91.378 46.6492 91.738C47.0812 92.086 47.6032 92.368 48.2152 92.584C48.8392 92.788 49.4572 93.016 50.0692 93.268C50.6932 93.508 51.2212 93.886 51.6532 94.402C52.0852 94.906 52.3012 95.548 52.3012 96.328C52.3012 97.516 51.9352 98.446 51.2032 99.118C50.4712 99.778 49.4332 100.108 48.0892 100.108C47.4172 100.108 46.7392 100.012 46.0552 99.82C45.3832 99.616 44.8312 99.382 44.3992 99.118L44.8492 98.092C45.9412 98.596 46.9732 98.848 47.9452 98.848C48.9292 98.848 49.6732 98.65 50.1772 98.254C50.6932 97.858 50.9512 97.282 50.9512 96.526C50.9512 95.758 50.5372 95.158 49.7092 94.726C49.3372 94.534 48.9232 94.354 48.4672 94.186C48.0232 94.018 47.5732 93.838 47.1172 93.646C46.6732 93.442 46.2652 93.214 45.8932 92.962C45.5332 92.71 45.2332 92.368 44.9932 91.936C44.7652 91.504 44.6512 91 44.6512 90.424C44.6512 89.392 44.9572 88.6 45.5692 88.048C46.1932 87.496 47.0272 87.22 48.0712 87.22C49.1152 87.22 50.2192 87.43 51.3832 87.85ZM64.0512 100.108C62.3352 100.108 61.0152 99.532 60.0912 98.38C59.1792 97.216 58.7232 95.644 58.7232 93.664C58.7232 91.684 59.2092 90.118 60.1812 88.966C61.1532 87.814 62.5092 87.238 64.2492 87.238C65.2092 87.238 66.1512 87.412 67.0752 87.76L66.7512 88.876C66.0192 88.564 65.1552 88.408 64.1592 88.408C62.8992 88.408 61.9032 88.87 61.1712 89.794C60.4392 90.706 60.0732 91.966 60.0732 93.574C60.0732 95.17 60.4152 96.466 61.0992 97.462C61.7952 98.446 62.7612 98.938 63.9972 98.938C64.8132 98.938 65.8392 98.704 67.0752 98.236L67.4352 99.172C66.4032 99.796 65.2752 100.108 64.0512 100.108ZM74.149 100.09C72.505 100.09 71.263 99.484 70.423 98.272C69.583 97.048 69.163 95.494 69.163 93.61C69.163 91.726 69.583 90.19 70.423 89.002C71.275 87.814 72.517 87.22 74.149 87.22C75.793 87.22 77.041 87.814 77.893 89.002C78.745 90.19 79.171 91.726 79.171 93.61C79.171 96.19 78.439 98.05 76.975 99.19C76.195 99.79 75.253 100.09 74.149 100.09ZM74.185 88.39C72.961 88.39 72.043 88.9 71.431 89.92C70.831 90.94 70.531 92.188 70.531 93.664C70.531 95.14 70.837 96.382 71.449 97.39C72.073 98.398 72.985 98.902 74.185 98.902C75.385 98.902 76.291 98.392 76.903 97.372C77.515 96.352 77.821 95.068 77.821 93.52C77.821 91.576 77.275 90.124 76.183 89.164C75.619 88.648 74.953 88.39 74.185 88.39ZM90.7528 93.25C90.7528 95.278 90.1648 96.91 88.9888 98.146C87.8128 99.382 86.2408 100 84.2728 100H81.6448V87.4H84.8308C86.6188 87.4 88.0528 87.946 89.1328 89.038C90.2128 90.13 90.7528 91.534 90.7528 93.25ZM89.2948 93.106C89.2948 91.69 88.8628 90.58 87.9988 89.776C87.1348 88.972 86.1028 88.57 84.9028 88.57H83.1028V98.83H84.4348C85.7908 98.83 86.9368 98.32 87.8728 97.3C88.8208 96.28 89.2948 94.882 89.2948 93.106ZM100.085 100H93.2991V87.4H100.085V88.57H94.6491V92.566H99.6351V93.772H94.6491V98.83H100.085V100Z" fill="black"/>
<path d="M47.6656 43.8673L39.4809 51.3096C39.4809 51.3096 38.6394 51.9344 39.4809 53.0526L43.2828 56.5086C43.2828 56.5086 44.1866 57.477 45.5192 56.3749L54.1973 49.7949L47.6656 43.8673Z" fill="#1070B3"/>
<path d="M62.0383 43.9296L77.052 32.4664L76.9552 20.9963C76.9552 20.9963 76.3143 18.4925 74.1747 19.7951L54.1948 37.979L62.0383 43.9296Z" fill="#0877B9"/>
<path d="M39.4808 36.4342C39.4808 36.4342 38.2496 35.5466 39.7275 34.3615L43.1697 31.2836C43.1697 31.2836 44.1542 30.2484 45.1963 31.1499L76.9575 55.1968V66.7268C76.9575 66.7268 76.9414 68.5367 74.6197 68.3384L39.4808 36.4342Z" fill="#2489CA"/>
<path d="M74.6152 68.3546C75.4867 69.2468 76.5449 68.954 76.5449 68.954L88.2456 63.1878C89.7442 62.1665 89.5321 60.9007 89.5321 60.9007V26.4743C89.5321 24.9618 87.9827 24.4385 87.9827 24.4385L77.8429 19.5507C75.6273 18.1812 74.1748 19.7974 74.1748 19.7974C74.1748 19.7974 76.0423 18.4532 76.9553 20.9986V66.5194C76.9553 66.8329 76.8884 67.1396 76.7547 67.4162C76.4873 67.9557 75.9086 68.4583 74.5183 68.2462L74.6152 68.3546Z" fill="#3C99D4"/>
<defs>
<filter id="filter0_d_95_68" x="0" y="0" width="130" height="127" filterUnits="userSpaceOnUse" color-interpolation-filters="sRGB">
<feFlood flood-opacity="0" result="BackgroundImageFix"/>
<feColorMatrix in="SourceAlpha" type="matrix" values="0 0 0 0 0 0 0 0 0 0 0 0 0 0 0 0 0 0 127 0" result="hardAlpha"/>
<feOffset dy="4"/>
<feGaussianBlur stdDeviation="2"/>
<feComposite in2="hardAlpha" operator="out"/>
<feColorMatrix type="matrix" values="0 0 0 0 0 0 0 0 0 0 0 0 0 0 0 0 0 0 0.25 0"/>
<feBlend mode="normal" in2="BackgroundImageFix" result="effect1_dropShadow_95_68"/>
<feBlend mode="normal" in="SourceGraphic" in2="effect1_dropShadow_95_68" result="shape"/>
</filter>
</defs>
</svg>
